#N canvas 113 25 450 594 10;
#X obj 82 28 inlet;
#X obj 22 28 inlet;
#X obj 22 113 route 1 2 3 4 5 6 7;
#X obj 313 378 outlet;
#X obj 22 69 swap;
#X obj 22 91 pack;
#X obj 22 267 jdp-mode 2 2 1 2 2 2 1;
#X obj 37 245 jdp-mode 2 1 2 2 2 1 2;
#X obj 53 223 jdp-mode 1 2 2 2 1 2 2;
#X obj 69 201 jdp-mode 2 2 2 1 2 2 1;
#X obj 85 179 jdp-mode 2 2 1 2 2 1 2;
#X obj 101 157 jdp-mode 2 1 2 2 1 2 2;
#X obj 117 135 jdp-mode 1 2 2 1 2 2 2;
#X text 261 133 locratian;
#X text 262 158 aeolian;
#X text 258 182 mixolydian;
#X text 254 203 lydian;
#X text 247 224 phrygian;
#X text 241 245 dorian;
#X text 238 267 ionian;
#X text 26 9 note;
#X text 84 8 scale;
#X connect 0 0 4 1;
#X connect 1 0 4 0;
#X connect 2 0 6 0;
#X connect 2 1 7 0;
#X connect 2 2 8 0;
#X connect 2 3 9 0;
#X connect 2 4 10 0;
#X connect 2 5 11 0;
#X connect 2 6 12 0;
#X connect 4 0 5 0;
#X connect 4 1 5 1;
#X connect 5 0 2 0;
#X connect 6 0 3 0;
#X connect 7 0 3 0;
#X connect 8 0 3 0;
#X connect 9 0 3 0;
#X connect 10 0 3 0;
#X connect 11 0 3 0;
#X connect 12 0 3 0;
