#N canvas 283 0 1024 676 10;
#X obj 306 -6 bng 15 250 50 0 empty empty empty 17 7 0 10 -262144 -1
-1;
#X msg 336 -6 stop;
#X msg 205 205 reset 8;
#X obj 56 404 jdp-mode-selector;
#X msg 155 374 1;
#X obj 56 428 + 60;
#X obj 56 457 mtof;
#X floatatom 77 368 5 0 0 0 - - -;
#X msg 210 385 2;
#X obj 55 292 jdp-measure-sequencer;
#X msg 401 17 clear;
#X floatatom 102 429 5 0 0 0 - - -;
#X obj 54 202 metro 20;
#X msg 280 206 reset 24;
#X obj 485 313 jdp-measure-sequencer;
#X obj 646 313 jdp-melodic-permute2 8;
#X obj 219 294 jdp-melodic-permute2 8;
#X obj 77 535 *~;
#X obj 72 568 dac~;
#X msg 660 241 reset 12;
#X msg 585 237 reset 4;
#X obj 313 122 bng 15 250 50 0 empty empty empty 17 7 0 10 -262144
-1 -1;
#X obj 568 118 bng 15 250 50 0 empty empty empty 17 7 0 10 -262144
-1 -1;
#X obj 485 250 metro 40;
#X obj 396 497 jdp-monitor~;
#X obj 53 485 osc~;
#X obj 168 481 line~;
#X msg 280 433 \$1 10;
#X obj 477 363 + 2;
#X obj 477 385 / 10;
#X connect 0 0 12 0;
#X connect 0 0 23 0;
#X connect 1 0 12 0;
#X connect 1 0 23 0;
#X connect 2 0 16 0;
#X connect 3 0 5 0;
#X connect 3 0 11 0;
#X connect 4 0 3 1;
#X connect 5 0 6 0;
#X connect 6 0 25 0;
#X connect 8 0 3 1;
#X connect 9 0 3 0;
#X connect 9 0 7 0;
#X connect 9 1 16 0;
#X connect 10 0 9 0;
#X connect 10 0 14 0;
#X connect 12 0 9 0;
#X connect 13 0 16 0;
#X connect 14 0 28 0;
#X connect 14 1 15 0;
#X connect 15 0 14 1;
#X connect 16 0 9 1;
#X connect 17 0 18 1;
#X connect 17 0 18 0;
#X connect 17 0 24 0;
#X connect 19 0 15 0;
#X connect 20 0 15 0;
#X connect 21 0 2 0;
#X connect 21 0 20 0;
#X connect 22 0 19 0;
#X connect 22 0 13 0;
#X connect 23 0 14 0;
#X connect 25 0 17 0;
#X connect 26 0 17 1;
#X connect 27 0 26 0;
#X connect 28 0 29 0;
#X connect 29 0 27 0;
