#N canvas 311 0 1024 676 10;
#X obj 41 26 bng 15 250 50 0 empty empty empty 17 7 0 10 -262144 -1
-1;
#X msg 74 34 stop;
#X obj 56 404 jdp-mode-selector;
#X msg 155 374 1;
#X obj 56 457 mtof;
#X msg 210 385 2;
#X msg 401 17 clear;
#X obj 54 202 metro 20;
#X obj 77 535 *~;
#X obj 72 568 dac~;
#X obj 396 497 jdp-monitor~;
#X obj 168 481 line~;
#X msg 280 433 \$1 10;
#X obj 477 363 + 2;
#X obj 477 385 / 10;
#X msg 321 140 8;
#X msg 606 104 24;
#X msg 219 266 reset \$1;
#X obj 646 261 / 2;
#X msg 646 287 reset \$1;
#X obj 56 428 + 55;
#X obj 154 350 loadbang;
#X obj 485 313 jdp-measure-sequencer;
#X obj 55 292 jdp-measure-sequencer;
#X obj 53 485 osc~;
#X msg 177 126 150;
#X obj 362 261 jdp-metro-skip 2;
#X msg 123 84 20;
#X obj 646 313 jdp-melodic-permute 4;
#X obj 218 292 jdp-melodic-permute 8;
#X connect 0 0 7 0;
#X connect 1 0 7 0;
#X connect 2 0 20 0;
#X connect 3 0 2 1;
#X connect 4 0 24 0;
#X connect 5 0 2 1;
#X connect 6 0 22 0;
#X connect 6 0 23 0;
#X connect 7 0 23 0;
#X connect 7 0 26 0;
#X connect 8 0 9 1;
#X connect 8 0 9 0;
#X connect 8 0 10 0;
#X connect 11 0 8 1;
#X connect 12 0 11 0;
#X connect 13 0 14 0;
#X connect 14 0 12 0;
#X connect 15 0 17 0;
#X connect 15 0 18 0;
#X connect 16 0 17 0;
#X connect 16 0 18 0;
#X connect 17 0 29 0;
#X connect 18 0 19 0;
#X connect 19 0 28 0;
#X connect 20 0 4 0;
#X connect 21 0 3 0;
#X connect 22 0 13 0;
#X connect 22 1 28 0;
#X connect 23 0 2 0;
#X connect 23 1 29 0;
#X connect 24 0 8 0;
#X connect 25 0 7 1;
#X connect 26 0 22 0;
#X connect 27 0 7 1;
#X connect 28 0 22 1;
#X connect 29 0 23 1;
