#N canvas 236 325 450 300 10;
#X obj 77 38 inlet;
#X obj 77 62 phasor~;
#X obj 116 38 inlet;
#X obj 77 86 expr~ $v1*2-1;
#X obj 77 110 outlet~;
#X connect 0 0 1 0;
#X connect 1 0 3 0;
#X connect 2 0 1 1;
#X connect 3 0 4 0;
