#N canvas 259 122 738 515 10;
#X obj 30 18 inlet;
#X obj 30 148 route bang reset;
#X msg 630 101 resize \$1;
#X obj 580 175 float;
#X obj 580 151 until;
#X msg 629 148 0;
#X obj 643 176 + 1;
#X obj 41 41 bng 15 250 50 0 empty empty empty 17 7 0 10 -262144 -1
-1;
#X obj 569 71 receive \$0-reset;
#X obj 76 170 send \$0-reset;
#X obj 569 18 table \$0-prmtn;
#X obj 630 122 send \$0-prmtn;
#X obj 580 283 tabwrite \$0-prmtn;
#X obj 55 238 random;
#X obj 117 238 random;
#X obj 88 56 loadbang;
#X obj 88 78 f \$1;
#X msg 88 101 reset \$1;
#X obj 127 196 receive \$0-reset;
#X obj 25 360 pack f f;
#X obj 81 303 tabread \$0-prmtn;
#X obj 109 275 tabread \$0-prmtn;
#X obj 78 271 f;
#X obj 22 276 f;
#X obj 85 418 tabwrite \$0-prmtn;
#X msg 85 395 \$2 \$1;
#X msg 25 395 \$2 \$1;
#X obj 25 440 tabwrite \$0-prmtn;
#X obj 374 264 tabdump \$0-prmtn;
#X obj 373 308 outlet;
#X obj 437 307 print;
#X obj 88 32 bng 15 250 50 0 empty empty empty 17 7 0 10 -262144 -1
-1;
#X obj 30 196 t b b b;
#X obj 91 358 pack f f;
#X obj 580 261 pack f f;
#X obj 580 200 t f f;
#X obj 580 236 mod 9;
#X obj 226 61 loadbang;
#X obj 226 84 f \$0;
#X obj 244 119 + 1;
#X msg 186 131 seed \$1;
#X msg 248 147 seed \$1;
#X connect 0 0 1 0;
#X connect 1 0 32 0;
#X connect 1 1 9 0;
#X connect 2 0 11 0;
#X connect 3 0 6 0;
#X connect 3 0 35 0;
#X connect 4 0 3 0;
#X connect 5 0 3 1;
#X connect 6 0 3 1;
#X connect 7 0 1 0;
#X connect 8 0 2 0;
#X connect 8 0 5 0;
#X connect 8 0 4 0;
#X connect 13 0 20 0;
#X connect 13 0 23 1;
#X connect 14 0 21 0;
#X connect 14 0 22 1;
#X connect 15 0 16 0;
#X connect 16 0 17 0;
#X connect 17 0 1 0;
#X connect 18 0 14 1;
#X connect 18 0 13 1;
#X connect 19 0 26 0;
#X connect 20 0 19 1;
#X connect 21 0 33 1;
#X connect 22 0 19 0;
#X connect 23 0 33 0;
#X connect 25 0 24 0;
#X connect 26 0 27 0;
#X connect 28 0 29 0;
#X connect 28 0 30 0;
#X connect 31 0 15 0;
#X connect 32 0 22 0;
#X connect 32 0 23 0;
#X connect 32 1 13 0;
#X connect 32 1 14 0;
#X connect 32 2 28 0;
#X connect 33 0 25 0;
#X connect 34 0 12 0;
#X connect 35 0 36 0;
#X connect 35 1 34 1;
#X connect 36 0 34 0;
#X connect 37 0 38 0;
#X connect 38 0 40 0;
#X connect 38 0 39 0;
#X connect 39 0 41 0;
#X connect 40 0 13 0;
#X connect 41 0 14 0;
