#N canvas 373 44 1004 661 10;
#X obj 35 218 dac~;
#X obj 35 84 pack f f;
#X obj 35 183 /~ 2;
#X obj 548 218 jdp-hammond-controller \$0-organ;
#X msg 510 94 8 8 8 0 0 0 0 0 0;
#X msg 524 119 8 8 8 8 8 8 8 8 8;
#X msg 341 95 0 0 0 0 0 0 0 0 0;
#X msg 468 39 8 4 0 0 0 0 4 7 8;
#X msg 493 65 8 0 4 6 0 0 0 0 0;
#X msg 440 8 6 6 8 8 4 8 6 8 8;
#X text 628 93 smith/emerson;
#X text 643 118 full;
#X text 613 63 mellow-dee;
#X text 591 37 simmerin';
#X text 559 9 shoutin';
#X text 344 71 none;
#X msg 535 147 0 0 4 8 0 0 0 0 0;
#X obj 15 314 *~ 2;
#X obj 35 26 notein 1;
#X obj 743 98 pack f f;
#X obj 760 8 ctlin;
#X obj 718 127 route 1 2 3 4 5 6 7 8 9;
#X obj 786 39 / 127;
#X obj 784 67 * 8;
#X obj 816 172 spigot;
#X obj 873 152 ctlin 10 2;
#X obj 329 49 ctlin 11 2;
#X obj 84 213 jdp-monitor~;
#X obj 35 113 jdp-poly-bank~ jdp-hammond-synth~ \$0-organ;
#X obj 12 380 jdp-spectrum~;
#X connect 1 0 28 0;
#X connect 2 0 0 0;
#X connect 2 0 0 1;
#X connect 2 0 17 0;
#X connect 2 0 27 0;
#X connect 4 0 3 0;
#X connect 5 0 3 0;
#X connect 6 0 3 0;
#X connect 7 0 3 0;
#X connect 8 0 3 0;
#X connect 9 0 3 0;
#X connect 16 0 3 0;
#X connect 17 0 29 0;
#X connect 18 0 1 0;
#X connect 18 1 1 1;
#X connect 19 0 21 0;
#X connect 20 0 22 0;
#X connect 20 1 19 0;
#X connect 21 0 3 0;
#X connect 21 1 3 1;
#X connect 21 2 3 2;
#X connect 21 3 3 3;
#X connect 21 4 3 4;
#X connect 21 5 3 5;
#X connect 21 6 3 6;
#X connect 21 7 3 7;
#X connect 21 8 24 0;
#X connect 22 0 23 0;
#X connect 23 0 19 1;
#X connect 24 0 3 8;
#X connect 25 0 24 1;
#X connect 26 0 6 0;
#X connect 28 0 2 0;
