#N canvas 811 276 450 300 10;
#X obj 14 15 inlet;
#X obj 182 15 inlet;
#X obj 71 93 loadbang;
#X msg 60 119 0;
#X obj 14 69 route bang reset;
#X obj 14 152 f;
#X obj 44 152 + 1;
#X obj 44 179 mod \$1;
#X obj 14 207 select 0;
#X obj 14 241 outlet;
#X obj 60 31 bng 15 250 50 0 empty empty empty 17 7 0 10 -262144 -1
-1;
#X obj 70 242 bng 15 250 50 0 empty empty empty 17 7 0 10 -262144 -1
-1;
#X connect 0 0 4 0;
#X connect 1 0 7 1;
#X connect 2 0 3 0;
#X connect 3 0 5 1;
#X connect 4 0 5 0;
#X connect 4 1 3 0;
#X connect 5 0 6 0;
#X connect 5 0 8 0;
#X connect 6 0 7 0;
#X connect 7 0 5 1;
#X connect 8 0 9 0;
#X connect 8 0 11 0;
#X connect 10 0 4 0;
