#N canvas 236 325 450 300 10;
#X obj 77 38 inlet;
#X obj 134 38 inlet;
#X obj 77 86 expr~ $v1*2-1;
#X obj 77 110 outlet~;
#X obj 77 62 phasor~ \$1;
#X connect 0 0 4 0;
#X connect 1 0 4 1;
#X connect 2 0 3 0;
#X connect 4 0 2 0;
