#N canvas 429 84 434 375 10;
#X obj 30 18 inlet;
#X obj 30 148 route bang reset;
#X msg 295 81 resize \$1;
#X obj 245 155 float;
#X obj 245 131 until;
#X msg 294 128 0;
#X obj 308 156 + 1;
#X obj 41 41 bng 15 250 50 0 empty empty empty 17 7 0 10 -262144 -1
-1;
#X obj 245 51 receive \$0-reset;
#X obj 76 173 send \$0-reset;
#X obj 245 19 table \$0-prmtn;
#X obj 295 102 send \$0-prmtn;
#X obj 245 263 tabwrite \$0-prmtn;
#X obj 88 34 loadbang;
#X obj 88 78 f \$1;
#X msg 88 101 reset \$1;
#X obj 57 219 tabdump \$0-prmtn;
#X obj 57 242 outlet;
#X obj 245 241 pack f f;
#X obj 245 180 t f f;
#X obj 245 216 mod 9;
#X obj 30 327 jdp-tabswap \$0-prmtn;
#N canvas 836 24 450 300 random-pair 0;
#X obj 18 16 inlet;
#X obj 127 16 loadbang;
#X obj 127 37 f \$0;
#X obj 201 74 + 1;
#X msg 201 96 seed \$1;
#X msg 127 96 seed \$1;
#X obj 18 160 random;
#X obj 63 160 random;
#X obj 59 16 inlet;
#X obj 18 96 t b b;
#X obj 18 193 pack f f;
#X obj 18 225 outlet;
#X connect 0 0 9 0;
#X connect 1 0 2 0;
#X connect 2 0 3 0;
#X connect 2 0 5 0;
#X connect 3 0 4 0;
#X connect 4 0 7 0;
#X connect 5 0 6 0;
#X connect 6 0 10 0;
#X connect 7 0 10 1;
#X connect 8 0 7 1;
#X connect 8 0 6 1;
#X connect 9 0 6 0;
#X connect 9 1 7 0;
#X connect 10 0 11 0;
#X restore 30 305 pd random-pair;
#X obj 30 196 t b b;
#X obj 111 282 receive \$0-reset;
#X obj 88 57 bng 15 250 50 0 empty empty empty 17 7 0 10 -262144 -1
-1;
#X connect 0 0 1 0;
#X connect 1 0 23 0;
#X connect 1 1 9 0;
#X connect 2 0 11 0;
#X connect 3 0 6 0;
#X connect 3 0 19 0;
#X connect 4 0 3 0;
#X connect 5 0 3 1;
#X connect 6 0 3 1;
#X connect 7 0 1 0;
#X connect 8 0 2 0;
#X connect 8 0 5 0;
#X connect 8 0 4 0;
#X connect 13 0 25 0;
#X connect 14 0 15 0;
#X connect 15 0 1 0;
#X connect 16 0 17 0;
#X connect 18 0 12 0;
#X connect 19 0 20 0;
#X connect 19 1 18 1;
#X connect 20 0 18 0;
#X connect 22 0 21 0;
#X connect 23 0 22 0;
#X connect 23 1 16 0;
#X connect 24 0 22 1;
#X connect 25 0 14 0;
