#N canvas 19 484 450 300 10;
#X obj 87 231 outlet~;
#X obj 33 142 *~ \$2;
#X obj 33 118 bp~ \$1 \$3;
#X obj 93 142 *~ \$5;
#X obj 93 118 bp~ \$4 \$6;
#X obj 153 118 bp~ \$7 \$9;
#X obj 102 28 inlet~;
#X obj 153 142 *~ \$8;
#X obj 88 200 /~ 3;
#X connect 1 0 8 0;
#X connect 2 0 1 0;
#X connect 3 0 8 0;
#X connect 4 0 3 0;
#X connect 5 0 7 0;
#X connect 6 0 2 0;
#X connect 6 0 4 0;
#X connect 6 0 5 0;
#X connect 7 0 8 0;
#X connect 8 0 0 0;
