#N canvas 78 322 757 475 10;
#X obj 301 118 cnv 15 298 281 empty empty empty 20 12 0 14 -261682
-66577 0;
#X obj 310 124 hsl 128 15 0 1 0 0 \$1-sub-octave empty empty -2 -8
0 10 -86853 -262144 -1 0 1;
#X obj 310 146 hsl 128 15 0 1 0 0 \$1-5th empty empty -2 -8 0 10 -86853
-262144 -1 0 1;
#X obj 310 168 hsl 128 15 0 1 0 0 \$1-unison empty empty -2 -8 0 10
-262144 -1 -1 100 1;
#X obj 578 124 bng 15 250 50 0 empty empty empty 17 7 0 10 -262144
-1 -1;
#X obj 578 73 loadbang;
#X obj 310 190 hsl 128 15 0 1 0 0 \$1-8th empty empty -2 -8 0 10 -262144
-1 -1 12500 1;
#X obj 310 212 hsl 128 15 0 1 0 0 \$1-12th empty empty -2 -8 0 10 -33289
-262144 -1 0 1;
#X obj 310 234 hsl 128 15 0 1 0 0 \$1-15th empty empty -2 -8 0 10 -262144
-1 -1 0 1;
#X obj 310 256 hsl 128 15 0 1 0 0 \$1-17th empty empty -2 -8 0 10 -33289
-262144 -1 0 1;
#X obj 310 278 hsl 128 15 0 1 0 0 \$1-19th empty empty -2 -8 0 10 -33289
-262144 -1 0 1;
#X obj 254 78 r \$0-refresh;
#X obj 578 147 s \$0-refresh;
#X text 445 122 sub-octave / 16';
#X text 445 166 unison / 8';
#X text 445 188 8th / 4';
#X text 445 210 12th / 2 2/3';
#X text 445 232 15th / 2';
#X obj 310 300 hsl 128 15 0 1 0 0 \$1-22nd empty empty -2 -8 0 10 -262144
-1 -1 0 1;
#X text 445 276 19th / 1 1/3';
#X text 445 254 17th / 1 3/5';
#X text 445 298 22nd / 1';
#X obj 13 31 inlet;
#X obj 13 57 unpack 0 0 0 0 0 0 0 0 0;
#X obj 13 89 / 8;
#X obj 61 89 / 8;
#X obj 37 89 / 8;
#X obj 157 89 / 8;
#X obj 133 89 / 8;
#X obj 85 89 / 8;
#X obj 109 89 / 8;
#X obj 181 89 / 8;
#X obj 205 89 / 8;
#X obj 307 349 hradio 15 1 0 4 \$1-vib empty vibrato 0 -8 0 10 -262144
-1 -1 0;
#X obj 360 325 inlet;
#X obj 534 73 inlet;
#X text 445 144 5th / 5 1/3';
#X obj 49 31 inlet;
#X obj 85 31 inlet;
#X obj 121 31 inlet;
#X obj 157 31 inlet;
#X obj 193 31 inlet;
#X obj 229 31 inlet;
#X obj 265 31 inlet;
#X obj 301 31 inlet;
#X connect 4 0 12 0;
#X connect 5 0 4 0;
#X connect 11 0 1 0;
#X connect 11 0 2 0;
#X connect 11 0 3 0;
#X connect 11 0 6 0;
#X connect 11 0 7 0;
#X connect 11 0 8 0;
#X connect 11 0 9 0;
#X connect 11 0 10 0;
#X connect 11 0 18 0;
#X connect 11 0 33 0;
#X connect 22 0 23 0;
#X connect 23 0 24 0;
#X connect 23 1 26 0;
#X connect 23 2 25 0;
#X connect 23 3 29 0;
#X connect 23 4 30 0;
#X connect 23 5 28 0;
#X connect 23 6 27 0;
#X connect 23 7 31 0;
#X connect 23 8 32 0;
#X connect 24 0 1 0;
#X connect 25 0 3 0;
#X connect 26 0 2 0;
#X connect 27 0 9 0;
#X connect 28 0 8 0;
#X connect 29 0 6 0;
#X connect 30 0 7 0;
#X connect 31 0 10 0;
#X connect 32 0 18 0;
#X connect 34 0 33 0;
#X connect 35 0 4 0;
#X connect 37 0 26 0;
#X connect 38 0 25 0;
#X connect 39 0 29 0;
#X connect 40 0 30 0;
#X connect 41 0 28 0;
#X connect 42 0 27 0;
#X connect 43 0 31 0;
#X connect 44 0 32 0;
#X coords 0 -1 1 1 300 300 1 300 100;
