#N canvas 482 147 864 532 10;
#X obj 35 26 notein;
#X obj 35 218 dac~;
#X obj 35 84 pack f f;
#X obj 35 58 mtof;
#X obj 80 58 / 127;
#X floatatom 100 85 5 0 0 0 - - -;
#X obj 84 213 jdp-monitor;
#X obj 35 183 /~ 2;
#X obj 480 154 jdp-hammond-controller \$0-organ;
#X msg 513 99 8 8 8 0 0 0 0 0 0;
#X msg 527 124 8 8 8 8 8 8 8 8 8;
#X msg 344 100 0 0 0 0 0 0 0 0 0;
#X msg 471 44 8 4 0 0 0 0 4 7 8;
#X msg 496 70 8 0 4 6 0 0 0 0 0;
#X msg 443 13 6 6 8 8 4 8 6 8 8;
#X obj 35 113 jdp-poly-bank jdp-hammond-synth \$0-organ;
#X text 631 98 smith/emerson;
#X text 646 123 full;
#X text 616 68 mellow-dee;
#X text 594 42 simmerin';
#X text 562 14 shoutin';
#X text 347 76 none;
#X connect 0 0 3 0;
#X connect 0 1 4 0;
#X connect 2 0 15 0;
#X connect 3 0 2 0;
#X connect 4 0 2 1;
#X connect 4 0 5 0;
#X connect 7 0 6 0;
#X connect 7 0 1 0;
#X connect 7 0 1 1;
#X connect 9 0 8 0;
#X connect 10 0 8 0;
#X connect 11 0 8 0;
#X connect 12 0 8 0;
#X connect 13 0 8 0;
#X connect 14 0 8 0;
#X connect 15 0 7 0;
