#N canvas 29 150 853 576 10;
#X obj 347 34 inlet;
#X obj 347 60 unpack f f;
#X obj 699 541 outlet~;
#X obj 139 293 osc~;
#X obj 27 293 osc~;
#X obj 222 294 osc~;
#X obj 699 515 *~;
#X obj 714 492 line~;
#X obj 332 187 +~;
#X obj 714 470 pack f 10;
#X obj 222 334 *~;
#X obj 139 335 *~;
#X obj 27 335 *~;
#X obj 714 448 / 4;
#X obj 42 314 r \$1-sub-octave;
#X obj 154 314 r \$1-5th;
#X obj 237 314 r \$1-unison;
#X obj 332 211 *~ 8;
#X obj 27 272 /~ 16;
#X obj 222 272 /~ 8;
#X obj 404 112 s \$0-velocity;
#X obj 714 423 r \$0-velocity;
#X obj 311 294 osc~;
#X obj 311 334 *~;
#X obj 381 294 osc~;
#X obj 381 334 *~;
#X obj 458 294 osc~;
#X obj 458 334 *~;
#X obj 535 294 osc~;
#X obj 535 334 *~;
#X obj 612 294 osc~;
#X obj 612 334 *~;
#X obj 326 314 r \$1-8th;
#X obj 396 314 r \$1-12th;
#X obj 473 314 r \$1-15th;
#X obj 550 314 r \$1-17th;
#X obj 627 314 r \$1-19th;
#X obj 689 294 osc~;
#X obj 689 334 *~;
#X obj 704 314 r \$1-22nd;
#X obj 311 272 /~ 4;
#X obj 381 272 /~ 2.66667;
#X obj 139 272 /~ 5.66667;
#X obj 458 272 /~ 2;
#X obj 535 272 /~ 1.6;
#X obj 612 272 /~ 1.33333;
#X obj 689 272 /~ 1;
#X obj 280 84 osc~ 6.2;
#X obj 295 106 r \$1-vib;
#X obj 280 155 *~;
#X obj 295 131 * 10;
#X obj 404 86 / 127;
#X obj 347 144 mtof;
#X connect 0 0 1 0;
#X connect 1 0 47 1;
#X connect 1 0 52 0;
#X connect 1 1 51 0;
#X connect 3 0 11 0;
#X connect 4 0 12 0;
#X connect 5 0 10 0;
#X connect 6 0 2 0;
#X connect 7 0 6 1;
#X connect 8 0 17 0;
#X connect 9 0 7 0;
#X connect 10 0 6 0;
#X connect 11 0 6 0;
#X connect 12 0 6 0;
#X connect 13 0 9 0;
#X connect 14 0 12 1;
#X connect 15 0 11 1;
#X connect 16 0 10 1;
#X connect 17 0 18 0;
#X connect 17 0 19 0;
#X connect 17 0 42 0;
#X connect 17 0 40 0;
#X connect 17 0 41 0;
#X connect 17 0 43 0;
#X connect 17 0 44 0;
#X connect 17 0 45 0;
#X connect 17 0 46 0;
#X connect 18 0 4 0;
#X connect 19 0 5 0;
#X connect 21 0 13 0;
#X connect 22 0 23 0;
#X connect 23 0 6 0;
#X connect 24 0 25 0;
#X connect 25 0 6 0;
#X connect 26 0 27 0;
#X connect 27 0 6 0;
#X connect 28 0 29 0;
#X connect 29 0 6 0;
#X connect 30 0 31 0;
#X connect 31 0 6 0;
#X connect 32 0 23 1;
#X connect 33 0 25 1;
#X connect 34 0 27 1;
#X connect 35 0 29 1;
#X connect 36 0 31 1;
#X connect 37 0 38 0;
#X connect 38 0 6 0;
#X connect 39 0 38 1;
#X connect 40 0 22 0;
#X connect 41 0 24 0;
#X connect 42 0 3 0;
#X connect 43 0 26 0;
#X connect 44 0 28 0;
#X connect 45 0 30 0;
#X connect 46 0 37 0;
#X connect 47 0 49 0;
#X connect 48 0 50 0;
#X connect 49 0 8 0;
#X connect 50 0 49 1;
#X connect 51 0 20 0;
#X connect 52 0 8 1;
