#N canvas 595 178 724 506 10;
#X obj 336 228 dac~;
#X obj 41 106 noise~;
#X obj 41 180 *~;
#X obj 92 -10 bng 15 250 50 0 empty empty empty 17 7 0 10 -262144 -1
-1;
#X obj 92 146 line;
#X msg 92 116 1;
#X msg 129 116 0;
#X obj 129 86 delay 10;
#X floatatom 276 87 5 0 0 0 - - -;
#X obj 336 195 *~;
#X obj 336 155 vline~;
#X msg 336 77 1 \, 0.8 100 \, 0 1000 1000;
#X msg 355 113 1;
#X obj 276 331 osc~;
#X obj 276 358 *~;
#X obj 313 333 tgl 15 0 empty empty empty 17 7 0 10 -262144 -1 -1 0
1;
#X obj 276 393 dac~;
#X obj 64 447 send~ karplus;
#X obj 93 181 receive~ karplus;
#X obj 64 331 z~ 1;
#X obj 41 300 z~;
#X obj 197 86 samplerate~;
#X obj 197 181 /;
#X floatatom 66 300 5 0 0 0 - - -;
#X obj 388 155 receive~ karplus;
#X obj 279 -15 hsl 128 15 40 2000 1 0 empty empty empty -2 -8 0 10
-262144 -1 -1 0 1;
#X obj 505 186 receive~ karplus;
#X floatatom 174 58 5 0 0 0 - - -;
#X obj 66 246 *~;
#X obj 66 211 invert;
#X obj 174 16 pow -1;
#X obj 174 36 * 4000;
#X obj 64 368 /~ 2.005;
#X obj 505 218 jdp-monitor~;
#X connect 1 0 2 0;
#X connect 2 0 20 0;
#X connect 3 0 5 0;
#X connect 3 0 7 0;
#X connect 3 0 21 0;
#X connect 4 0 2 1;
#X connect 4 0 29 0;
#X connect 5 0 4 0;
#X connect 6 0 4 0;
#X connect 7 0 6 0;
#X connect 8 0 22 1;
#X connect 8 0 13 0;
#X connect 9 0 0 0;
#X connect 9 0 0 1;
#X connect 10 0 9 0;
#X connect 11 0 10 0;
#X connect 12 0 10 0;
#X connect 13 0 14 0;
#X connect 14 0 16 0;
#X connect 14 0 16 1;
#X connect 15 0 14 1;
#X connect 18 0 28 1;
#X connect 19 0 32 0;
#X connect 20 0 19 0;
#X connect 20 0 32 0;
#X connect 21 0 22 0;
#X connect 22 0 23 0;
#X connect 23 0 20 1;
#X connect 24 0 9 1;
#X connect 25 0 8 0;
#X connect 25 0 30 0;
#X connect 26 0 33 0;
#X connect 27 0 7 1;
#X connect 28 0 20 0;
#X connect 29 0 28 0;
#X connect 30 0 31 0;
#X connect 31 0 27 0;
#X connect 32 0 17 0;
