#N canvas 720 20 554 544 10;
#X obj 19 12 inlet;
#X obj 19 41 t b a;
#X obj 46 70 unpack f f;
#X obj 19 114 f;
#X obj 47 114 f;
#X obj 149 114 tabread \$1;
#X obj 77 114 tabread \$1;
#X obj 19 159 pack f f;
#X obj 83 159 pack f f;
#X msg 19 183 \$2 \$1;
#X msg 83 183 \$2 \$1;
#X obj 83 208 tabwrite \$1;
#X obj 19 232 tabwrite \$1;
#X connect 0 0 1 0;
#X connect 1 0 3 0;
#X connect 1 0 4 0;
#X connect 1 1 2 0;
#X connect 2 0 3 1;
#X connect 2 0 6 0;
#X connect 2 1 4 1;
#X connect 2 1 5 0;
#X connect 3 0 8 0;
#X connect 4 0 7 0;
#X connect 5 0 8 1;
#X connect 6 0 7 1;
#X connect 7 0 9 0;
#X connect 8 0 10 0;
#X connect 9 0 12 0;
#X connect 10 0 11 0;
