#N canvas 15 23 599 522 10;
#X obj 44 28 inlet;
#X obj 258 36 inlet;
#X text 259 10 measure data;
#X obj 44 104 float;
#X obj 100 105 + 1;
#X obj 100 132 mod 5;
#X floatatom 44 141 5 0 0 0 - - -;
#X obj 258 91 list length;
#X obj 43 181 select 0;
#X obj 55 279 outlet;
#X obj 159 284 outlet;
#X text 55 301 the note;
#X text 176 305 bang for next measure;
#X obj 158 260 bng 15 250 50 0 empty empty empty 17 7 0 10 -262144
-1 -1;
#X obj 147 201 list;
#X obj 147 176 bng 15 250 50 0 empty empty empty 17 7 0 10 -262144
-1 -1;
#X obj 147 226 list split 1;
#X text 14 8 metronome pulse;
#X obj 44 54 route bang clear;
#X msg 72 80 0;
#X obj 200 196 hradio 15 1 0 16 empty \$0-sequence-recv empty 0 -8
0 10 -262144 -1 -1 6;
#X msg 258 117 number \$1;
#X obj 258 144 send \$0-sequence-recv;
#X connect 0 0 18 0;
#X connect 1 0 7 0;
#X connect 1 0 14 1;
#X connect 3 0 4 0;
#X connect 3 0 6 0;
#X connect 4 0 5 0;
#X connect 5 0 3 1;
#X connect 6 0 8 0;
#X connect 6 0 15 0;
#X connect 6 0 20 0;
#X connect 7 0 5 1;
#X connect 7 0 21 0;
#X connect 8 0 13 0;
#X connect 13 0 10 0;
#X connect 14 0 16 0;
#X connect 15 0 14 0;
#X connect 16 0 9 0;
#X connect 16 1 14 1;
#X connect 18 0 3 0;
#X connect 18 1 19 0;
#X connect 19 0 3 1;
#X connect 21 0 22 0;
#X coords 0 -1 1 1 150 40 1 195 176;
